<?xml version="1.0" encoding="utf-8"?>
<!-- Generator: Adobe Illustrator 18.1.0, SVG Export Plug-In . SVG Version: 6.00 Build 0)  -->
<svg version="1.1" xmlns="http://www.w3.org/2000/svg" xmlns:xlink="http://www.w3.org/1999/xlink" x="0px" y="0px"
	 viewBox="0 0 236.1 218.1" enable-background="new 0 0 236.1 218.1" xml:space="preserve">
<g id="Layer_1">
</g>
<g id="Layer_2">
	<g>
		
			<line fill="#FFFFFF" stroke="#000000" stroke-width="0" stroke-linecap="round" stroke-linejoin="round" x1="52" y1="87.5" x2="54.1" y2="87.5"/>
		
			<line fill="#FFFFFF" stroke="#000000" stroke-width="0" stroke-linecap="round" stroke-linejoin="round" x1="10.5" y1="87.5" x2="14.2" y2="87.5"/>
		<path fill="#FFFFFF" d="M232,55l-14.5,5.7c-1.4,0.6-3.1,0-3.8-1.4C195.7,24.1,159.2,0,117,0C65.5,0,22.5,35.8,11.3,83.8
			c-0.4,1.9,1,3.7,2.9,3.7H52c1.3,0,2.4-0.8,2.9-2c9.3-25.3,33.6-43.3,62.1-43.3c24,0,45,12.8,56.7,31.9c1,1.6,0.2,3.7-1.5,4.3
			l-15.2,6c-2.5,1-2.6,4.5-0.1,5.6l52.3,22.8c1.5,0.7,3.3,0,4-1.6l10.4-23.8h0c0,0,0,0,0,0L235.8,59C236.9,56.6,234.5,54,232,55z"/>
		
			<line fill="#FFFFFF" stroke="#000000" stroke-width="0" stroke-linecap="round" stroke-linejoin="round" x1="181.9" y1="130.6" x2="184.1" y2="130.6"/>
		
			<line fill="#FFFFFF" stroke="#000000" stroke-width="0" stroke-linecap="round" stroke-linejoin="round" x1="225.6" y1="130.6" x2="221.8" y2="130.6"/>
		<path fill="#FFFFFF" d="M181.3,132.6c-9.3,25.3-33.6,43.3-62.1,43.3c-24,0-45-12.8-56.7-31.9c-1-1.6-0.2-3.7,1.5-4.3l15.2-6
			c2.5-1,2.6-4.5,0.1-5.6L27,105.3c-1.5-0.7-3.3,0-4,1.6l-10.4,23.8h0c0,0,0,0,0,0L0.3,159.1c-1.1,2.5,1.4,5,3.9,4l14.5-5.7
			c1.4-0.6,3.1,0,3.8,1.4c17.9,35.2,54.5,59.3,96.7,59.3c51.4,0,94.5-35.8,105.7-83.8c0.4-1.9-1-3.7-2.9-3.7h-37.7
			C182.9,130.6,181.7,131.4,181.3,132.6z"/>
	</g>
</g>
</svg>
