<svg xmlns="http://www.w3.org/2000/svg" viewBox="164.4 54.2 511.9 470.9" enable-background="new 164.4 54.2 511.9 470.9"><g><g fill="#664F36"><path d="M430.5 343.5V525h56c0-.6 0-1.2.6-1.8l47-179.8H430.5zM412 343.5H309.6l47 179.8c0 .6 0 1.2.6 1.8h55.4V343.5h-.6zM290 344.1c0-.6 0-.6 0 0l-51.2-.6c-5.4 0-7.7 6-4.8 13.7l56 161.3c1.2 3.6 5.4 6.5 8.9 6.5h38.7L290 344.1zM605.5 343.5h-51.8v.6l-47.6 181h41.7c3.6 0 7.7-3 8.9-6.5l54.2-161.3c1.7-7.9-.1-13.8-5.4-13.8z"/></g><path fill="#C19A6B" d="M642.4 323.8c20.8-21.4 33.9-50.6 33.9-83.3 0-65.5-53.6-119.1-119.1-119.1-16.1 0-31.5 3.6-45.8 8.9-1.2-4.2-2.4-7.7-3.6-11.9-16.7-44.1-57.1-64.3-90.5-64.3-33.9 0-75 19.6-93.5 64.9-1.2 3-2.4 6-3 8.9-11.9-4.2-24.4-6-37.5-6-65.5 0-119.1 53.6-119.1 119.1 0 32.1 13.1 61.3 33.9 83.3h444.1v-.5z"/></g><g fill="#7B3F00"><ellipse cx="391.2" cy="133.9" rx="14.9" ry="13.7"/><ellipse cx="472.1" cy="198.2" rx="10.7" ry="9.5"/><ellipse cx="360.2" cy="261.9" rx="14.9" ry="13.7"/><ellipse cx="226.3" cy="271.4" rx="14.9" ry="13.7"/><ellipse cx="588.8" cy="166.1" rx="11.3" ry="10.7"/><ellipse cx="531.7" cy="270.3" rx="12.5" ry="11.9"/></g><g fill="#FFDB4D"><circle opacity=".5" enable-background="new" cx="281.1" cy="195.8" r="29.8"/><circle opacity=".5" enable-background="new" cx="617.4" cy="248.8" r="29.8"/></g></svg>