<svg xmlns="http://www.w3.org/2000/svg" viewBox="0 0 399.6 400.5" enable-background="new 0 0 399.6 400.5"><g><path fill="#DB4D4D" d="M199.4.2s84.7-7.3 153.5 71.7l-76.1 63.6s-28.3-34-76.4-31L199.4.2z"/><path fill="#F89406" d="M352.9 71.9s58.5 57 44.7 162.3l-94-15.8s6.9-48.3-26.8-82.8l76.1-63.7z"/><path fill="#FFC40D" d="M397.5 234.2s-6.7 83-96.7 139.4l-47.5-81.5s45-25.9 50.2-73.8l94 15.9z"/><path fill="#46A546" d="M300.8 373.6s-71 48.7-168.6 15.2l33.4-91.5s46.6 20.1 87.8-5.1l47.4 81.4z"/><path fill="#049CDB" d="M132.2 388.8S50.7 366.4 12.3 269l95.8-34.8s14.7 46.3 57.4 63.1l-33.3 91.5z"/><path fill="#0064CD" d="M11.8 269.3s-34.9-77 15.5-168.7l90.9 52.6s-24.4 37.4-10 81l-96.4 35.1z"/><path fill="#7A43B6" d="M27.3 100.6S70.9 5.9 199.4.2l1 104.3s-51.5-2.5-82.2 48.7l-90.9-52.6z"/></g></svg>