<svg xmlns="http://www.w3.org/2000/svg" viewBox="0 0 374.1 191.9" enable-background="new 0 0 374.1 191.9"><g><path fill="none" d="M0 108.9h361v83H0z"/><text transform="translate(0 189.625)" fill="#fff" font-family="'SegoeUI-Semibold'" font-size="109">CRYDN</text><g fill="#fff"><path d="M60.9 10.7c-6.7-6.3-16.5-9.4-29.6-9.4H11.2v76.3h19.1c6.3 0 11.9-.9 16.9-2.8 5-1.9 9.3-4.5 12.8-7.9 3.5-3.4 6.2-7.5 8.1-12.4 1.9-4.8 2.8-10.2 2.8-16.1 0-12.2-3.3-21.5-10-27.7zm.3 41.9c-1.5 4-3.7 7.4-6.6 10.2-2.9 2.8-6.4 4.8-10.5 6.3-4.1 1.4-8.8 2.1-14.1 2.1H18.3V7.8h12.5c21.8 0 32.6 10.3 32.6 30.9 0 5.2-.7 9.8-2.2 13.9zM144.8 45.2h17.4v23.3c-4.8 2.7-10.4 4-16.8 4-4.8 0-9-.8-12.7-2.4-3.7-1.6-6.7-3.9-9.2-6.8-2.5-2.9-4.4-6.4-5.6-10.4-1.3-4-1.9-8.3-1.8-13.1 0-4.8.8-9.2 2.2-13.2 1.5-4.1 3.5-7.6 6.1-10.6 2.6-3 5.8-5.3 9.6-7 3.8-1.7 8-2.6 12.6-2.6 7.5 0 14.5 1.8 21.1 5.4V4c-5.9-2.7-12.7-4-20.2-4-4 0-7.8.5-11.2 1.4-3.5 1-6.7 2.3-9.6 4.1-2.9 1.8-5.5 3.9-7.7 6.3s-4.1 5.2-5.7 8.2c-1.5 3-2.7 6.2-3.5 9.7-.8 3.4-1.2 7-1.2 10.8 0 5.6.8 10.8 2.5 15.5 1.6 4.7 4 8.7 7.1 12.1 3.1 3.4 6.8 6 11.2 7.9 4.4 1.9 9.4 2.8 14.9 2.8 8.8 0 17.1-2.2 24.9-6.6V38.7h-24.4v6.5zM186.9 1.3h7.1v76.3h-7.1zM206.6 7.8h21.9v69.8h7.1V7.8h22.1V1.3h-51.1zM315 77.6h8.3L294.4 1.3h-7.1l-29.1 76.3h7.5l.2-.6.2-.5c.2-.7 23.2-63.3 23.4-64.2.3-.9.8-1.8 1-3h.2c.2 1.1.5 2.1.8 3"/><path d="M343.4 71.2V1.3h-7v76.3h37.7v-6.4zM263.7 77.6M266.3 76.3"/></g></g><g><path fill="#E06164" d="M84.1.4h10.5v17.2H84.1z"/><path fill="#45C0EC" d="M84.1 18.9h10.5v17.9H84.1z"/><path fill="#7D3C8F" d="M84.1 38.1h10.5V57H84.1z"/><path fill="#7AC190" d="M84.1 58.3h10.5v19.1H84.1z"/></g></svg>