<svg xmlns="http://www.w3.org/2000/svg" viewBox="0 0 69.6 36.7" enable-background="new 0 0 69.6 36.7"><g><path d="M9 11.4c-2.6 0-4.6 1.9-4.6 5s2.1 4.9 4.6 4.9c2.5 0 4.6-1.9 4.6-4.9s-2.1-5-4.6-5z" fill="none"/><path fill="#fff" d="M34 1.2L32 2l.2-2h-2l.1 2-1.9-.8-.6 2 1.9.4-1.3 1.6L30 6.4l1.2-1.8 1.3 1.8L34 5.2l-1.4-1.6 2-.4zM14.8 6.1L13 8.3c-1.2-.8-2.7-1-4.1-1-5 0-9 3.5-9 9s3.5 8.9 9 8.9c2.2 0 4.5 1.1 4.5 3.6 0 2.1-1.5 3.5-3.6 3.8v4.1c4.7-.3 8-3.3 8-7.9 0-2.3-.7-4.4-3.7-5.9 2.9-1.3 3.7-4.4 3.7-6.6 0-1.9-.5-3.7-1.9-5.3l2-2.5-3.1-2.4zM9 21.3c-2.6 0-4.6-1.8-4.6-4.9 0-3.1 2.1-5 4.6-5 2.5 0 4.6 1.9 4.6 5s-2.1 4.9-4.6 4.9zM20.8.5h4.4v25.2h-4.4zM29 7.9h4.4v17.8H29zM47.3 7.7c-2.2 0-4 .9-5.8 2.7L41.2 8h-3.9v17.8h4.4v-9.1c0-2.7 1.8-5 4.5-5 2.8 0 4.3 2.1 4.3 4.8v9.3h4.4v-9.3c-.1-5.7-3.5-8.8-7.6-8.8zM68.4 21.4c-.6.3-1.4.5-2.1.5-1.4 0-2.3-.8-2.3-2.5v-7.7h4.9V8H64V3l-4.4.5V8h-3.3v3.8h3.3v7.7c0 4.4 2.5 6.6 6.4 6.5 1.3 0 2.4-.3 3.6-.8l-1.2-3.8z"/></g></svg>