<svg width="78" height="78" viewBox="0 0 78 78" xmlns="http://www.w3.org/2000/svg"><title>Oval 2 + image</title><desc>Created with Sketch.</desc><g transform="translate(-49 -15) translate(49 15)" fill="none"><circle fill="#F3D286" cx="39" cy="39" r="39"/><g transform="translate(14 16)"><ellipse fill="#CBB18D" cx="24.093" cy="38.449" rx="14.948" ry="7.551"/><path d="M5.42 22.71s-2.957-3.462-5.14-.523c-1.346 3.757 2.634 6.046 2.634 6.046l2.51-5.523zm37.315 0s2.96-3.462 5.143-.523c1.346 3.757-2.635 6.046-2.635 6.046l-2.508-5.523z" fill="#86735C"/><ellipse fill="#887863" cx="24.313" cy="37.58" rx="3.649" ry="3.601"/><ellipse fill="#0B0B0B" cx="24.361" cy="36.366" rx="3.253" ry="3.211"/><path d="M24.093 33.14c.516 1.282 2.205 4.553 6.55 6.483 5.492 2.44 7.05 1.88 10.173 1.27 0 0 11.57-3.837 5.034-18.005 0 0-3.85-10.252-21.454-12.008l-.303-.03v22.29z" fill="#DBC6A9"/><path d="M24.11 33.14c-.516 1.28-2.205 4.553-6.55 6.483-5.492 2.44-7.05 1.88-10.173 1.27 0 0-11.57-3.837-5.034-18.005 0 0 3.85-10.252 21.454-12.008l.303-.03v22.29z" fill="#DBC7A9"/><g transform="translate(13.717 22.392)"><path d="M17.883 3.298l.06-1.07C18 1.278 18.79.33 19.713.114l-.44.103c.923-.216 1.77.378 1.884 1.31 0 0 .153 1 .153 1.77 0 .63-.047 1.39-.047 1.39-.045.947-.84 1.803-1.78 1.913l.258-.03c-.93.11-1.73-.57-1.77-1.516l-.08-1.756zm-14.457.058l-.06-1.07C3.31 1.336 2.518.388 1.596.172l.44.103C1.113.06.266.653.152 1.585c0 0-.153 1-.153 1.77 0 .63.04 1.39.04 1.39.04.948.84 1.804 1.78 1.914l-.26-.03c.94.1 1.73-.58 1.77-1.52l.08-1.76z" fill="#000"/><ellipse fill="#fff" cx="1.759" cy="2.604" rx=".528" ry=".521"/><ellipse fill="#fff" cx="19.521" cy="2.777" rx=".528" ry=".521"/></g><path d="M24.297 35.784s.282-2.602 1.975-2.932c0 0-.672-2.475-2.292-2.475-1.62 0-1.914 1.79-1.997 2.475 1.366.607 2.314 2.932 2.314 2.932z" fill="#100F0F"/><g transform="rotate(5 25.937 12.323) translate(1.844 2.168)"><path d="M7.57 14.734l33.602.147s-5.504 5.36-16.85 5.27C12.98 20.05 7.57 14.74 7.57 14.74z" fill="#000"/><path fill="#1E4776" d="M7.56 10.068h33.518v4.86H7.558z"/><ellipse fill="#26558B" cx="24.093" cy="6.162" rx="24.093" ry="6.162"/><path d="M24.494 11.294l-1.134.657v2.44l1.143-.66 1.144.66v-2.44l-1.134-.65v-.01l-.01.01h-.01v.01z" fill="#C5BA2C"/></g><path stroke="#979797" d="M9.17 15.443l-.158.3.16-.3z"/></g></g></svg>