<?xml version="1.0" encoding="utf-8"?>
<!-- Generator: Adobe Illustrator 12.0.0, SVG Export Plug-In . SVG Version: 6.00 Build 51448)  -->
<!DOCTYPE svg PUBLIC "-//W3C//DTD SVG 1.1//EN" "http://www.w3.org/Graphics/SVG/1.1/DTD/svg11.dtd" [
	<!ENTITY ns_svg "http://www.w3.org/2000/svg">
	<!ENTITY ns_xlink "http://www.w3.org/1999/xlink">
]>
<svg  version="1.1" xmlns="&ns_svg;" xmlns:xlink="&ns_xlink;" width="242" height="91" viewBox="0 0 242 91"
	 overflow="visible" enable-background="new 0 0 242 91" xml:space="preserve">
<g id="Shape_2_copy_1_" enable-background="new    ">
	<g id="Shape_2_copy">
		<g>
			<polygon fill="#97441F" points="163.678,47.246 120.842,8.939 126.291,75.386 166.937,72.053 			"/>
		</g>
	</g>
</g>
<g id="Shape_2_1_" enable-background="new    ">
	<g id="Shape_2">
		<g>
			<polygon fill="#8D1E1E" points="121.35,8.897 85.327,53.672 86.153,78.678 126.799,75.345 			"/>
		</g>
	</g>
</g>
<g id="Shape_3_1_" enable-background="new    ">
	<g id="Shape_3">
		<g>
			<polygon fill="#20427A" points="76.807,64.649 62.659,91 125.822,91 128.204,90.805 125.73,60.638 			"/>
		</g>
	</g>
</g>
<g id="Shape_3_copy_1_" enable-background="new    ">
	<g id="Shape_3_copy">
		<g>
			<polygon fill="#205484" points="174.268,56.657 125.344,60.67 127.817,90.836 196.272,85.223 			"/>
		</g>
	</g>
</g>
<g id="Shape_1_1_" enable-background="new    ">
	<g id="Shape_1">
		<g>
			<polygon fill="#2B2C2B" points="43.35,91 73.036,91 125.154,60.907 0.191,20.756 			"/>
		</g>
	</g>
</g>
<g id="Shape_1_copy_1_" enable-background="new    ">
	<g id="Shape_1_copy">
		<g>
			<polygon fill="#D2C33E" points="124.985,60.922 190.752,85.675 207.745,84.281 241.737,0.948 			"/>
		</g>
	</g>
</g>
<g id="Shape_4_copy_4_1_" enable-background="new    ">
	<g id="Shape_4_copy_4">
		<g>
			<path fill="#7E9FA8" d="M55.756,78.294c-10.972,0.485-19.355,6.241-19.514,10.699c-0.001,0.69,0.198,1.36,0.542,2.007h39.288
				c0.344-0.646,0.545-1.316,0.546-2.007C76.792,84.579,66.996,78.54,55.756,78.294z"/>
		</g>
	</g>
</g>
<g id="Shape_5_1_" enable-background="new    ">
	<g id="Shape_5">
		<g>
			<path fill="#7E9FA8" d="M70.02,82.233c0.078,3.274,0.12,6.127,0.144,8.767h39.019c0.145-2.758,0.402-5.852,0.863-9.565
				c-6.373,4.372-13.077,6.613-19.799,6.733C83.517,88.438,76.768,86.54,70.02,82.233z"/>
		</g>
	</g>
</g>
<g id="Shape_4_copy_1_" enable-background="new    ">
	<g id="Shape_4_copy">
		<g>
			<path fill="#7E9FA8" d="M122.874,78.294c-10.972,0.485-19.355,6.241-19.514,10.699c-0.001,0.69,0.198,1.36,0.542,2.007h39.289
				c0.344-0.646,0.545-1.316,0.546-2.007C143.91,84.579,134.113,78.54,122.874,78.294z"/>
		</g>
	</g>
</g>
<g id="Shape_5_copy_1_" enable-background="new    ">
	<g id="Shape_5_copy">
		<g>
			<path fill="#7E9FA8" d="M137.837,82.233c0.078,3.274,0.12,6.127,0.144,8.767H177c0.145-2.758,0.401-5.852,0.863-9.565
				c-6.373,4.372-13.077,6.613-19.8,6.733C151.334,88.438,144.585,86.54,137.837,82.233z"/>
		</g>
	</g>
</g>
<g id="Shape_4_copy_3_1_" enable-background="new    ">
	<g id="Shape_4_copy_3">
		<g>
			<path fill="#7E9FA8" d="M189.992,78.294c-10.972,0.485-19.355,6.241-19.514,10.699c-0.001,0.69,0.198,1.36,0.541,2.007h39.288
				c0.345-0.646,0.545-1.316,0.546-2.007C211.028,84.579,201.231,78.54,189.992,78.294z"/>
		</g>
	</g>
</g>
</svg>
