<svg xmlns="http://www.w3.org/2000/svg" xmlns:xlink="http://www.w3.org/1999/xlink" version="1.1" id="Livello_1" x="0px" y="0px" viewBox="5.0 -10.0 100.0 135.0" enable-background="new 0 0 100 100" xml:space="preserve" height="90px" width="70px">
<g>
	<path fill="#ffffff" d="M50,7c23.7,0,43,19.3,43,43S73.7,93,50,93S7,73.7,7,50S26.3,7,50,7 M50,5C25.2,5,5,25.1,5,50c0,24.9,20.2,45,45,45   s45-20.1,45-45C95,25.1,74.8,5,50,5L50,5z"/>
</g>
<g>
	<path fill="#ffffff" d="M50,74v-2c12.1,0,22-9.9,22-22s-9.9-22-22-22s-22,9.9-22,22h-2c0-13.2,10.8-24,24-24s24,10.8,24,24   S63.2,74,50,74z"/>
</g>
<path fill="#000000" stroke="#000100" stroke-miterlimit="10" d="M27,50"/>
<path fill="#000000" stroke="#000100" stroke-miterlimit="10" d="M50,73"/>
<g>
	<polygon fill="#ffffff" points="53.8,79.7 42.2,73 53.8,66.3  "/>
</g>
<!--<text x="0.0" y="117.5" font-size="5.0" font-weight="bold" font-family="Helvetica Neue, Helvetica, Arial-Unicode, Arial, Sans-serif" fill="#000000">Created by Hysen Drogu</text><text x="0.0" y="122.5" font-size="5.0" font-weight="bold" font-family="Helvetica Neue, Helvetica, Arial-Unicode, Arial, Sans-serif" fill="#000000">from the Noun Project</text>-->
</svg>